<svg xmlns="http://www.w3.org/2000/svg" version="1.1" xmlns:xlink="http://www.w3.org/1999/xlink" xmlns:svgjs="http://svgjs.dev/svgjs" width="1440" height="560" preserveAspectRatio="none" viewBox="0 0 1440 560"><g mask="url(&quot;#SvgjsMask1002&quot;)" fill="none"><rect width="1440" height="560" x="0" y="0" fill="rgba(211, 255, 249, 1)"></rect><path d="M1536 560L0 560 L0 367.32Q36.53 331.85, 72 368.37Q70.45 294.82, 144 293.27Q236.91 266.18, 264 359.09Q306.77 281.86, 384 324.62Q427.38 296, 456 339.38Q466.52 277.9, 528 288.42Q596.53 236.96, 648 305.49Q702.55 288.04, 720 342.59Q793.96 296.55, 840 370.51Q872.78 283.29, 960 316.07Q1006.96 243.03, 1080 289.99Q1173.59 263.58, 1200 357.17Q1208.67 293.84, 1272 302.51Q1299.3 257.81, 1344 285.1Q1401.42 270.52, 1416 327.95Q1496.56 288.5, 1536 369.06z" fill="rgba(0, 212, 255, 1)"></path><path d="M1536 560L0 560 L0 419.2Q9.43 356.63, 72 366.05Q125.15 299.2, 192 352.35Q241.42 329.77, 264 379.19Q352.37 347.56, 384 435.92Q405.23 337.15, 504 358.39Q548.77 331.16, 576 375.94Q619.32 347.26, 648 390.58Q719.04 341.62, 768 412.66Q781.06 353.72, 840 366.78Q887 341.78, 912 388.79Q995 351.78, 1032 434.78Q1078.46 361.24, 1152 407.7Q1184.6 320.3, 1272 352.9Q1320.19 329.09, 1344 377.28Q1394.48 355.76, 1416 406.25Q1482.14 352.39, 1536 418.53z" fill="rgba(78, 144, 255, 1)"></path><path d="M1512 560L0 560 L0 470.26Q27.63 425.89, 72 453.53Q152.11 413.63, 192 493.74Q222.39 452.13, 264 482.52Q290.27 436.79, 336 463.07Q388.73 395.8, 456 448.53Q544.8 417.33, 576 506.13Q606.41 464.54, 648 494.96Q693.44 420.39, 768 465.83Q798.46 424.29, 840 454.76Q890.55 433.31, 912 483.86Q977.73 429.59, 1032 495.31Q1055.16 398.48, 1152 421.64Q1219.53 369.16, 1272 436.69Q1370.53 415.22, 1392 513.74Q1419.68 421.43, 1512 449.11z" fill="rgba(70, 203, 255, 1)"></path><path d="M1488 560L0 560 L0 522.07Q62.74 512.81, 72 575.55Q99.68 483.23, 192 510.91Q244.97 443.88, 312 496.86Q377.14 490, 384 555.15Q426.87 478.02, 504 520.89Q550.93 495.82, 576 542.74Q591.49 486.23, 648 501.71Q689.28 470.99, 720 512.26Q789.35 509.61, 792 578.96Q813.83 528.79, 864 550.62Q903.45 470.07, 984 509.51Q1057.95 463.46, 1104 537.42Q1147.22 508.63, 1176 551.85Q1212.19 468.04, 1296 504.22Q1341.25 477.47, 1368 522.72Q1444.93 479.65, 1488 556.58z" fill="white"></path></g><defs><mask id="SvgjsMask1002"><rect width="1440" height="560" fill="#ffffff"></rect></mask></defs></svg>